<?xml version="1.0" encoding="UTF-8"?>
<svg viewBox="0 0 32 32" version="1.1" xmlns="http://www.w3.org/2000/svg" xmlns:xlink="http://www.w3.org/1999/xlink">
    <title>icon / social / instagram</title>
    <g id="icon-/-social-/-instagram" stroke="none" stroke-width="1" fill="none" fill-rule="evenodd">
        <circle id="Oval" fill="#015CA1" fill-rule="nonzero" cx="16" cy="16" r="12"></circle>
        <path d="M18.9567666,9 C21.1820995,9 22.9896366,10.8074661 23,13.0433067 L23,13.0433067 L23,18.956752 C23,21.1925105 21.1820995,23 18.9567666,23 L18.9567666,23 L13.0433499,23 C10.8075372,23 9,21.1820591 9,18.956752 L9,18.956752 L9,13.0433067 C9,10.8074661 10.8075372,9 13.0433499,9 L13.0433499,9 Z M19.0194126,10.3164189 L12.970224,10.3164189 C11.4866299,10.3164189 10.2850596,11.5179086 10.2850596,13.0015014 L10.2850596,13.0015014 L10.2850596,19.0611477 C10.2850596,20.5447641 11.4866299,21.7463125 12.970224,21.7463125 L12.970224,21.7463125 L19.0194126,21.7463125 C20.5030067,21.7463125 21.7044606,20.5447641 21.7044606,19.0611477 L21.7044606,19.0611477 L21.7044606,13.0015014 C21.7044606,11.5179086 20.5030067,10.3164189 19.0194126,10.3164189 L19.0194126,10.3164189 Z M16,12.2307692 C18.0855829,12.2307692 19.7692308,13.9252785 19.7692308,15.9999512 C19.7692308,18.0747459 18.0855829,19.7692308 16,19.7692308 C13.9253129,19.7692308 12.2307692,18.0856119 12.2307692,15.9999512 C12.2307692,13.9252785 13.9144171,12.2307692 16,12.2307692 Z M16,13.6102867 C14.6422585,13.6102867 13.5559443,14.707386 13.5559443,16.0542811 C13.5559443,17.4012983 14.6530333,18.4983976 16,18.4983976 C17.3469667,18.4983976 18.4440557,17.4012983 18.4440557,16.0542811 C18.4440557,14.707386 17.3578625,13.6102867 16,13.6102867 Z M19.7691567,11.1538462 C20.3675214,11.1538462 20.8461538,11.632482 20.8461538,12.2307767 C20.8461538,12.8290266 20.3541849,13.3076923 19.7691567,13.3076923 C19.1709402,13.3076923 18.6923077,12.8290266 18.6923077,12.2307767 C18.6923077,11.632482 19.1709402,11.1538462 19.7691567,11.1538462 Z" id="Combined-Shape" fill="#F5F7FA" fill-rule="nonzero"></path>
    </g>
</svg>