<?xml version="1.0" encoding="UTF-8"?>
<svg viewBox="0 0 32 32" version="1.1" xmlns="http://www.w3.org/2000/svg" xmlns:xlink="http://www.w3.org/1999/xlink">
    <title>icon / social / twitter</title>
    <g id="icon-/-social-/-twitter" stroke="none" stroke-width="1" fill="none" fill-rule="evenodd">
        <circle id="Oval" fill="#015CA1" fill-rule="nonzero" cx="16" cy="16" r="12"></circle>
        <path d="M23,12.3007569 C22.4788833,12.5188013 21.9266535,12.6691705 21.3433104,12.7368457 C21.9344609,12.390983 22.3933512,11.8571474 22.6033361,11.2030143 C22.0589136,11.5263148 21.4444574,11.7518799 20.7911971,11.8796983 C20.262273,11.338342 19.5155566,11 18.6911155,11 C17.1044597,11 15.8211283,12.2481232 15.8211283,13.7744566 C15.8211283,13.9924669 15.8366267,14.2029792 15.8911621,14.4059935 C13.503371,14.2931825 11.395482,13.1880214 9.97219956,11.503764 C9.7232941,11.9172906 9.58334304,12.390983 9.58334304,12.9097998 C9.58334304,13.8721579 10.0966523,14.7218187 10.858867,15.2180506 C10.3921693,15.2030546 9.94108638,15.0752476 9.55992076,14.8722333 C9.55992076,14.8797313 9.55992076,14.8947273 9.55992076,14.9022253 C9.55992076,16.248118 10.5555426,17.3683888 11.8621798,17.6316143 C11.6288891,17.691712 11.3721763,17.7218177 11.1077725,17.7218177 C10.9210934,17.7218177 10.7422217,17.7143196 10.56335,17.676716 C10.9365917,18.7744927 11.9944399,19.5864362 13.2466581,19.6090439 C12.2666511,20.3458937 11.0299312,20.7895259 9.68437349,20.7895259 C9.45108289,20.7895259 9.22548318,20.7819143 9,20.7519223 C10.2677165,21.5413718 11.7766476,22 13.402224,22 C18.6833081,22 21.5689101,17.7669193 21.5689101,14.1052778 C21.5689101,13.9849689 21.5611027,13.8646599 21.5611027,13.7443509 C22.1289474,13.353432 22.6111435,12.864664 23,12.3007569 Z" id="Path" fill="#F5F7FA" fill-rule="nonzero"></path>
    </g>
</svg>