<?xml version="1.0" encoding="UTF-8"?>
<svg viewBox="0 0 32 32" version="1.1" xmlns="http://www.w3.org/2000/svg" xmlns:xlink="http://www.w3.org/1999/xlink">
    <title>icon / social / youtube</title>
    <g id="icon-/-social-/-youtube" stroke="none" stroke-width="1" fill="none" fill-rule="evenodd">
        <circle id="Oval" fill="#015CA1" fill-rule="nonzero" cx="16" cy="16" r="12"></circle>
        <path d="M22.7031,12.02015 C22.2851,11.27822 21.8321,11.14333 20.9111,11.08431 C19.9891,11.02529 17.6768,11 15.68,11 C13.6746,11 11.3621,11.02529 10.4405,11.08431 C9.5189,11.13489 9.0666,11.26979 8.6485,12.02015 C8.2218,12.76207 8,14.04356 8,16.29466 C8,18.53726 8.2218,19.82726 8.6485,20.56076 C9.0666,21.30266 9.5189,21.43756 10.4405,21.50496 C11.3621,21.55556 13.6746,21.58926 15.68,21.58926 C17.6853,21.58926 19.9981,21.55556 20.9111,21.50496 C21.8321,21.44596 22.2851,21.31106 22.7031,20.56076 C23.1381,19.82726 23.3511,18.53726 23.3511,16.29466 C23.3511,16.29466 23.3511,16.29466 23.3511,16.28626 C23.3511,14.04356 23.1381,12.76207 22.7031,12.02015 Z M14.1525,19.06846 L14.1525,13.50396 L18.5045,16.29466 L14.1525,19.06846 Z" id="Shape" fill="#F5F7FA"></path>
    </g>
</svg>