<svg xmlns="http://www.w3.org/2000/svg" xmlns:xlink="http://www.w3.org/1999/xlink" width="44px" height="44px" viewBox="0 0 44 44" version="1.1">
    <title>button / arrow primary</title>
    <g id="button-/-arrow-primary" stroke="none" stroke-width="1" fill="none" fill-rule="evenodd">
        <g id="LightBG" transform="translate(2.000000, 0.000000)" fill-rule="nonzero">
            <path d="M20.5000711,1 C22.056732,1 23.6122988,1.63545316 24.7603897,2.90237424 L24.7603897,2.90237424 L38.4888192,18.0490587 C39.4966605,19.1657756 40,20.5777341 40,21.9894134 C40,23.4010928 39.4966605,24.8130512 38.4897748,25.9287108 L38.4897748,25.9287108 L24.7603479,41.0977856 C23.6123112,42.3645822 22.0567367,43 20.5000711,43 C18.9434056,43 17.3878311,42.3645822 16.2402196,41.0982551 L16.2402196,41.0982551 L2.50850431,25.9267497 C1.50209763,24.8207141 1,23.4152116 1,22.0079804 C1,20.5986743 1.50345555,19.1868946 2.51028051,18.0713394 L2.51028051,18.0713394 L16.2398114,2.90230932 C17.3878435,1.63545316 18.9434103,1 20.5000711,1 Z" id="Path" stroke="#38E1F4" stroke-width="2" fill="#243B53"/>
            <path d="M15.3291439,14 C16.6237511,14.0850014 17.6552066,14.4255131 18.7084045,14.7233554 C19.6958536,15.0851174 20.6833026,15.4893801 21.5390803,15.9786442 C22.4607806,16.4255763 23.2508094,17.0000105 24.0406643,17.5531944 C24.8087769,18.148879 25.5328831,18.7659826 26.2131567,19.4468372 L29,22.2340069 L26.2131567,24.8510051 C24.8745257,26.1064626 23.3824809,27.2340807 21.6269192,28.1063572 C20.7930579,28.5745396 19.8494413,28.936133 18.8839084,29.297895 C17.8745431,29.5957373 16.8651778,29.8937482 15.6363541,30 L15.3291439,29.7021577 C17.8526268,26.9999895 20.5297149,24.4681614 23.119138,21.8509945 L23.119138,22.4468478 C20.3980434,19.7234291 17.6112002,17.085012 15,14.2765919 L15.3291439,14 Z" id="Path" fill="#38E1F4"/>
        </g>
    </g>
</svg>