<?xml version="1.0" encoding="UTF-8"?>
<svg width="72px" height="72px" viewBox="0 0 72 72" version="1.1" xmlns="http://www.w3.org/2000/svg" xmlns:xlink="http://www.w3.org/1999/xlink">
    <title>button / play primary</title>
    <defs>
        <filter color-interpolation-filters="auto" id="filter-1">
            <feColorMatrix in="SourceGraphic" type="matrix" values="0 0 0 0 0.219608 0 0 0 0 0.882353 0 0 0 0 0.956863 0 0 0 1.000000 0"></feColorMatrix>
        </filter>
    </defs>
    <g id="button-/-play-primary" stroke="none" stroke-width="1" fill="none" fill-rule="evenodd">
        <g id="Primary">
            <path d="M71,1 L71,37 C71,46.3888407 67.1944204,54.8888407 61.0416306,61.0416306 C54.8888407,67.1944204 46.3888407,71 37,71 L37,71 L35,71 C25.6111593,71 17.1111593,67.1944204 10.9583694,61.0416306 C4.80557963,54.8888407 1,46.3888407 1,37 L1,37 L1,35 C1,25.6111593 4.80557963,17.1111593 10.9583694,10.9583694 C17.1111593,4.80557963 25.6111593,1 35,1 L35,1 L71,1 Z" id="Rectangle" stroke="#38E1F4" stroke-width="2" fill-opacity="0.8" fill="#243B53"></path>
            <g id="icon-/-play-/-light" transform="translate(15.000000, 10.000000)" filter="url(#filter-1)">
                <g>
                    <path d="M16.388585,8.66666667 C19.9101573,10.4085222 23.204523,12.4343661 26.4042607,14.5738232 C28.0325179,15.6151484 29.547162,16.770067 31.1375482,17.8492633 C32.6900634,18.9662811 34.1857719,20.1591203 35.7193515,21.2950538 L38.4268348,23.3209572 L35.7761581,26.0851479 C34.583418,27.3347937 33.2580301,28.4707272 32.0084834,29.6446309 C30.7399021,30.8185346 29.4903554,32.0112747 28.1650666,33.1094362 L24.2269226,36.4794648 L20.1562894,39.6981082 L15.5365952,43.3333333 L15.2336585,37.7859172 C15.1579253,36.233402 15.1957924,34.6808869 15.1768588,33.1283718 C15.1389927,31.5758566 15.2147259,30.0233415 15.2715256,28.4517917 C15.2904581,26.8992765 15.4419245,25.3278259 15.5365952,23.7563752 C15.6691241,22.1849245 15.8584497,20.6134739 16.1045818,19.0420232 L16.4832528,19.0041522 L18.490171,37.4450776 L17.9789712,37.2557224 L25.6848097,30.3262108 L33.4473854,23.4724414 L33.4473854,23.964666 L16.1613884,8.9506659 L16.388585,8.66666667 Z" id="Path" fill="#FFFFFF" fill-rule="nonzero"></path>
                </g>
            </g>
        </g>
    </g>
</svg>