<?xml version="1.0" encoding="UTF-8"?>
<svg width="86px" height="8px" viewBox="0 0 86 8" version="1.1" xmlns="http://www.w3.org/2000/svg" xmlns:xlink="http://www.w3.org/1999/xlink">
    <title>Path</title>
    <g id="Symbols" stroke="none" stroke-width="1" fill="none" fill-rule="evenodd">
        <g id="module-/-footer-/-1600" transform="translate(-757.000000, -152.000000)" fill="#F5F7FA" fill-rule="nonzero">
            <g id="Arrow-3" transform="translate(757.000000, 152.000000)">
                <path d="M63.902,1.2455112 C58.7584,3.4810512 58.4215,0.932537198 55.4117,0.194809198 C53.3902,-0.297009802 53.3452,0.105386198 55.3443,1.8267512 C55.771,2.2067912 56.1978,2.5421312 56.5796,2.8774612 L22.1242,2.8774612 L20.215,0.753694198 L5.81744,0.753694198 L7.7491,2.8774612 L0,2.8774612 L0,5.1129912 L7.7491,5.1129912 L5.81744,7.2367612 L20.215,7.2367612 L22.1467,5.1129912 L56.6021,5.1129912 C56.2203,5.4259712 55.7935,5.7836612 55.3667,6.1637012 C53.3677,7.8850612 53.3901,8.3098212 55.4341,7.7956412 C58.4439,7.0579112 58.7808,4.5094012 63.9244,6.7449412 C69.068,8.9804712 85.4647,3.9952312 85.4647,3.9952312 C85.4647,3.9952312 69.0456,-0.990023802 63.902,1.2455112 Z" id="Path"></path>
            </g>
        </g>
    </g>
</svg>