<svg data-v-69a5d4c0="" role="img" fill="#243b53" aria-labelledby="leonopteryx" width="249" height="78" viewfill="none" xmlns="http://www.w3.org/2000/svg"><title data-v-69a5d4c0="" id="leonopteryx">Leonopteryx Icon</title> <path data-v-69a5d4c0="" d="M173.296 12.1266C173.296 12.1266 178.72 3.3157 180 0C180 0 169.642 7.79073 165.545 9.97027C160.657 12.5672 157.887 14.9322 154.255 16.8335C151.928 18.0624 146.807 20.7289 146.807 20.7289C146.807 20.7289 149.6 18.3407 148.669 15.9061C147.738 13.4715 144.758 14.0511 144.758 14.0511C144.758 14.0511 149.181 15.0945 147.668 17.7146C146.155 20.3347 136.821 30.0963 132.351 30.4209C130.024 30.6064 132.887 23.975 132.119 21.1463C131.839 20.126 130.14 20.0333 129.488 16.5553C128.837 20.0333 127.161 20.1029 126.858 21.1463C126.09 23.975 128.953 30.6064 126.625 30.4209C122.156 30.0963 112.822 20.3347 111.309 17.7146C109.796 15.0945 114.218 14.0511 114.218 14.0511C114.218 14.0511 111.239 13.4715 110.308 15.9061C109.377 18.3407 112.17 20.7289 112.17 20.7289C112.17 20.7289 107.049 18.0624 104.721 16.8335C101.113 14.9322 98.3667 12.5672 93.4552 9.97027C89.3584 7.79073 79 0 79 0C80.2802 3.3157 85.7038 12.1266 85.7038 12.1266L82.3286 10.5036C83.6089 13.5874 87.566 19.0363 87.566 19.0363L84.0046 18.2711C85.8202 21.3549 90.5921 24.717 90.5921 24.717L89.3584 25.0184C89.4282 26.5256 96.6442 34.1308 102.347 38.3044C108.05 42.478 116.5 43.591 116.5 43.591C112.193 47.3704 103.045 53.2134 105.21 53.0279C107.375 52.8425 110.867 53.9786 114.358 54.5583C117.85 55.1379 119.945 54.5583 122.272 56.5987C124.6 58.6391 125.648 63.091 125.834 67.7979C126.02 72.5048 127.23 78 127.23 78C127.23 78 126.346 70.6266 126.555 68.8876C126.765 67.1486 126.951 63.1373 126.602 60.1231C126.253 57.1088 128.115 56.3436 128.115 56.3436C128.115 56.3436 128.348 56.0422 128.162 57.9203C127.975 59.7753 128.511 58.7319 128.231 61.236C127.952 63.7402 128.511 62.6968 128.278 64.1344C128.045 65.5951 128.743 68.3775 129.186 67.9138C129.628 67.4501 128.813 62.4649 129.186 60.4941C129.558 58.5232 129.209 58.6391 128.93 57.2943C128.627 55.9495 129.512 55.7872 129.512 55.7872C129.512 55.7872 130.396 55.9727 130.094 57.2943C129.791 58.6391 129.465 58.5232 129.838 60.4941C130.21 62.4649 129.395 67.4501 129.838 67.9138C130.28 68.3775 130.978 65.5951 130.745 64.1344C130.513 62.6736 131.071 63.717 130.792 61.236C130.513 58.7319 131.048 59.7753 130.862 57.9203C130.676 56.0654 130.908 56.3436 130.908 56.3436C130.908 56.3436 132.77 57.1088 132.421 60.1231C132.072 63.1373 132.282 67.1486 132.468 68.8876C132.654 70.6266 131.793 78 131.793 78C131.793 78 133.027 72.4816 133.189 67.7979C133.352 63.1142 134.423 58.6391 136.751 56.5987C139.079 54.5583 141.174 55.1379 144.665 54.5583C148.157 53.9786 151.648 52.8656 153.813 53.0279C155.978 53.2134 146.83 47.3704 142.524 43.591C142.524 43.591 150.973 42.478 156.676 38.3044C162.379 34.1308 169.595 26.5256 169.665 25.0184L168.431 24.717C168.431 24.717 173.203 21.3549 175.019 18.2711L171.457 19.0363C171.457 19.0363 175.414 13.5874 176.695 10.5036L173.296 12.1266Z"></path> <path data-v-69a5d4c0="" d="M248.85 38.7308C248.234 38.3067 246.886 37.5073 245.304 37.5073C243.139 37.5073 230.769 37.2953 230.12 37.2953C229.47 37.2953 229.687 38.1436 228.605 38.1436C227.522 38.1436 227.522 37.2953 226.873 37.2953C226.274 37.2953 224.792 37.9967 223.71 38.1272C223.66 38.1272 223.643 38.1599 223.593 38.1762H199.835C199.252 37.6868 198.702 37.1648 198.236 36.6264C197.953 36.3002 197.82 35.876 197.47 35.6803C197.121 35.4519 196.754 35.2561 196.138 35.1093L195.989 35.1746C195.822 35.7781 195.972 36.3165 196.222 36.7569C196.471 37.2137 196.988 37.3931 197.404 37.6378C197.787 37.8662 198.203 38.0457 198.602 38.1925H195.389C193.774 37.2626 193.491 35.2887 191.86 34.783C189.695 34.1305 185 34 185 34L190.578 36.6264C187.348 37.1648 187.348 39.0082 187.348 39.0082C187.348 39.0082 187.348 40.8515 190.578 41.3736L185 44C185 44 189.695 43.8695 191.86 43.217C193.491 42.7113 193.774 40.7374 195.389 39.8238H198.935C198.403 39.9869 197.887 40.199 197.387 40.4927C196.971 40.721 196.455 40.9168 196.222 41.3736C195.972 41.7977 195.822 42.3361 195.989 42.9396L196.138 43.0212C196.754 42.8581 197.121 42.6623 197.47 42.4502C197.82 42.2382 197.953 41.814 198.236 41.5041C198.752 40.9331 199.335 40.3622 199.968 39.8238H223.593C223.626 39.8401 223.66 39.8728 223.693 39.8728C224.775 40.0033 226.274 40.7047 226.856 40.7047C227.506 40.7047 227.506 39.8564 228.588 39.8564C229.67 39.8564 229.454 40.7047 230.103 40.7047C230.752 40.7047 243.123 40.4927 245.287 40.4927C246.869 40.4927 248.217 39.6933 248.834 39.2692C249.05 39.1387 249.05 38.8613 248.85 38.7308Z"></path> <path data-v-69a5d4c0="" d="M0.147888 39.2692C0.763912 39.6933 2.1125 40.4927 3.69419 40.4927C5.8586 40.4927 18.2291 40.7047 18.8784 40.7047C19.5277 40.7047 19.3113 39.8564 20.3935 39.8564C21.4757 39.8564 21.4757 40.7047 22.125 40.7047C22.7244 40.7047 24.2062 40.0033 25.2884 39.8728C25.3383 39.8728 25.355 39.8401 25.4049 39.8238L49.1635 39.8238C49.7462 40.3132 50.2957 40.8352 50.7618 41.3736C51.0449 41.6998 51.1781 42.124 51.5277 42.3197C51.8773 42.5481 52.2436 42.7439 52.8596 42.8907L53.0095 42.8254C53.176 42.2219 53.0261 41.6835 52.7764 41.2431C52.5267 40.7863 52.0105 40.6069 51.5943 40.3622C51.2114 40.1338 50.7951 39.9543 50.3955 39.8075L53.6089 39.8075C55.2239 40.7374 55.5069 42.7113 57.1385 43.217C59.3029 43.8695 63.998 44 63.998 44L58.4205 41.3736C61.6505 40.8352 61.6505 38.9918 61.6505 38.9918C61.6505 38.9918 61.6505 37.1485 58.4205 36.6264L63.998 34C63.998 34 59.3029 34.1305 57.1385 34.783C55.5069 35.2887 55.2239 37.2626 53.6089 38.1762L50.0626 38.1762C50.5953 38.0131 51.1115 37.801 51.6109 37.5073C52.0272 37.279 52.5433 37.0832 52.7764 36.6264C53.0261 36.2023 53.176 35.6639 53.0095 35.0604L52.8596 34.9788C52.2436 35.1419 51.8773 35.3377 51.5277 35.5498C51.1781 35.7618 51.0449 36.186 50.7618 36.4959C50.2457 37.0669 49.663 37.6378 49.0303 38.1762L25.4049 38.1762C25.3716 38.1599 25.3383 38.1272 25.305 38.1272C24.2228 37.9967 22.7244 37.2953 22.1416 37.2953C21.4923 37.2953 21.4923 38.1436 20.4101 38.1436C19.3279 38.1436 19.5443 37.2953 18.895 37.2953C18.2457 37.2953 5.87526 37.5073 3.71084 37.5073C2.12916 37.5073 0.780559 38.3067 0.164535 38.7308C-0.0519032 38.8613 -0.0519032 39.1387 0.147888 39.2692Z"></path></svg>